<?xml version="1.0" encoding="utf-8" standalone="no"?>
<!DOCTYPE svg PUBLIC "-//W3C//DTD SVG 1.1//EN"
  "http://www.w3.org/Graphics/SVG/1.1/DTD/svg11.dtd">
<svg xmlns:xlink="http://www.w3.org/1999/xlink" width="576pt" height="360pt" viewBox="0 0 576 360" xmlns="http://www.w3.org/2000/svg" version="1.1">
 <metadata>
  <rdf:RDF xmlns:dc="http://purl.org/dc/elements/1.1/" xmlns:cc="http://creativecommons.org/ns#" xmlns:rdf="http://www.w3.org/1999/02/22-rdf-syntax-ns#">
   <cc:Work>
    <dc:type rdf:resource="http://purl.org/dc/dcmitype/StillImage"/>
    <dc:date>2026-01-08T15:33:38.060000</dc:date>
    <dc:format>image/svg+xml</dc:format>
    <dc:creator>
     <cc:Agent>
      <dc:title>Matplotlib v3.10.7, https://matplotlib.org/</dc:title>
     </cc:Agent>
    </dc:creator>
   </cc:Work>
  </rdf:RDF>
 </metadata>
 <defs>
  <style type="text/css">*{stroke-linejoin: round; stroke-linecap: butt}</style>
 </defs>
 <g id="figure_1">
  <g id="patch_1">
   <path d="M 0 360 
L 576 360 
L 576 0 
L 0 0 
z
" style="fill: #ffffff"/>
  </g>
  <g id="axes_1">
   <g id="patch_2">
    <path d="M 50.87 318.04 
L 558.855 318.04 
L 558.855 10.8 
L 50.87 10.8 
z
" style="fill: #ffffff"/>
   </g>
   <g id="matplotlib.axis_1">
    <g id="xtick_1">
     <g id="line2d_1">
      <defs>
       <path id="m7b7d724cc6" d="M 0 0 
L 0 3.5 
" style="stroke: #000000; stroke-width: 0.8"/>
      </defs>
      <g>
       <use xlink:href="#m7b7d724cc6" x="50.87" y="318.04" style="stroke: #000000; stroke-width: 0.8"/>
      </g>
     </g>
     <g id="text_1">
      <!-- 0 -->
      <g transform="translate(47.68875 332.638438) scale(0.1 -0.1)">
       <defs>
        <path id="DejaVuSans-30" d="M 2034 4250 
Q 1547 4250 1301 3770 
Q 1056 3291 1056 2328 
Q 1056 1369 1301 889 
Q 1547 409 2034 409 
Q 2525 409 2770 889 
Q 3016 1369 3016 2328 
Q 3016 3291 2770 3770 
Q 2525 4250 2034 4250 
z
M 2034 4750 
Q 2819 4750 3233 4129 
Q 3647 3509 3647 2328 
Q 3647 1150 3233 529 
Q 2819 -91 2034 -91 
Q 1250 -91 836 529 
Q 422 1150 422 2328 
Q 422 3509 836 4129 
Q 1250 4750 2034 4750 
z
" transform="scale(0.015625)"/>
       </defs>
       <use xlink:href="#DejaVuSans-30"/>
      </g>
     </g>
    </g>
    <g id="xtick_2">
     <g id="line2d_2">
      <g>
       <use xlink:href="#m7b7d724cc6" x="135.534167" y="318.04" style="stroke: #000000; stroke-width: 0.8"/>
      </g>
     </g>
     <g id="text_2">
      <!-- 10 -->
      <g transform="translate(129.171667 332.638438) scale(0.1 -0.1)">
       <defs>
        <path id="DejaVuSans-31" d="M 794 531 
L 1825 531 
L 1825 4091 
L 703 3866 
L 703 4441 
L 1819 4666 
L 2450 4666 
L 2450 531 
L 3481 531 
L 3481 0 
L 794 0 
L 794 531 
z
" transform="scale(0.015625)"/>
       </defs>
       <use xlink:href="#DejaVuSans-31"/>
       <use xlink:href="#DejaVuSans-30" transform="translate(63.623047 0)"/>
      </g>
     </g>
    </g>
    <g id="xtick_3">
     <g id="line2d_3">
      <g>
       <use xlink:href="#m7b7d724cc6" x="220.198333" y="318.04" style="stroke: #000000; stroke-width: 0.8"/>
      </g>
     </g>
     <g id="text_3">
      <!-- 20 -->
      <g transform="translate(213.835833 332.638438) scale(0.1 -0.1)">
       <defs>
        <path id="DejaVuSans-32" d="M 1228 531 
L 3431 531 
L 3431 0 
L 469 0 
L 469 531 
Q 828 903 1448 1529 
Q 2069 2156 2228 2338 
Q 2531 2678 2651 2914 
Q 2772 3150 2772 3378 
Q 2772 3750 2511 3984 
Q 2250 4219 1831 4219 
Q 1534 4219 1204 4116 
Q 875 4013 500 3803 
L 500 4441 
Q 881 4594 1212 4672 
Q 1544 4750 1819 4750 
Q 2544 4750 2975 4387 
Q 3406 4025 3406 3419 
Q 3406 3131 3298 2873 
Q 3191 2616 2906 2266 
Q 2828 2175 2409 1742 
Q 1991 1309 1228 531 
z
" transform="scale(0.015625)"/>
       </defs>
       <use xlink:href="#DejaVuSans-32"/>
       <use xlink:href="#DejaVuSans-30" transform="translate(63.623047 0)"/>
      </g>
     </g>
    </g>
    <g id="xtick_4">
     <g id="line2d_4">
      <g>
       <use xlink:href="#m7b7d724cc6" x="304.8625" y="318.04" style="stroke: #000000; stroke-width: 0.8"/>
      </g>
     </g>
     <g id="text_4">
      <!-- 30 -->
      <g transform="translate(298.5 332.638438) scale(0.1 -0.1)">
       <defs>
        <path id="DejaVuSans-33" d="M 2597 2516 
Q 3050 2419 3304 2112 
Q 3559 1806 3559 1356 
Q 3559 666 3084 287 
Q 2609 -91 1734 -91 
Q 1441 -91 1130 -33 
Q 819 25 488 141 
L 488 750 
Q 750 597 1062 519 
Q 1375 441 1716 441 
Q 2309 441 2620 675 
Q 2931 909 2931 1356 
Q 2931 1769 2642 2001 
Q 2353 2234 1838 2234 
L 1294 2234 
L 1294 2753 
L 1863 2753 
Q 2328 2753 2575 2939 
Q 2822 3125 2822 3475 
Q 2822 3834 2567 4026 
Q 2313 4219 1838 4219 
Q 1578 4219 1281 4162 
Q 984 4106 628 3988 
L 628 4550 
Q 988 4650 1302 4700 
Q 1616 4750 1894 4750 
Q 2613 4750 3031 4423 
Q 3450 4097 3450 3541 
Q 3450 3153 3228 2886 
Q 3006 2619 2597 2516 
z
" transform="scale(0.015625)"/>
       </defs>
       <use xlink:href="#DejaVuSans-33"/>
       <use xlink:href="#DejaVuSans-30" transform="translate(63.623047 0)"/>
      </g>
     </g>
    </g>
    <g id="xtick_5">
     <g id="line2d_5">
      <g>
       <use xlink:href="#m7b7d724cc6" x="389.526667" y="318.04" style="stroke: #000000; stroke-width: 0.8"/>
      </g>
     </g>
     <g id="text_5">
      <!-- 40 -->
      <g transform="translate(383.164167 332.638438) scale(0.1 -0.1)">
       <defs>
        <path id="DejaVuSans-34" d="M 2419 4116 
L 825 1625 
L 2419 1625 
L 2419 4116 
z
M 2253 4666 
L 3047 4666 
L 3047 1625 
L 3713 1625 
L 3713 1100 
L 3047 1100 
L 3047 0 
L 2419 0 
L 2419 1100 
L 313 1100 
L 313 1709 
L 2253 4666 
z
" transform="scale(0.015625)"/>
       </defs>
       <use xlink:href="#DejaVuSans-34"/>
       <use xlink:href="#DejaVuSans-30" transform="translate(63.623047 0)"/>
      </g>
     </g>
    </g>
    <g id="xtick_6">
     <g id="line2d_6">
      <g>
       <use xlink:href="#m7b7d724cc6" x="474.190833" y="318.04" style="stroke: #000000; stroke-width: 0.8"/>
      </g>
     </g>
     <g id="text_6">
      <!-- 50 -->
      <g transform="translate(467.828333 332.638438) scale(0.1 -0.1)">
       <defs>
        <path id="DejaVuSans-35" d="M 691 4666 
L 3169 4666 
L 3169 4134 
L 1269 4134 
L 1269 2991 
Q 1406 3038 1543 3061 
Q 1681 3084 1819 3084 
Q 2600 3084 3056 2656 
Q 3513 2228 3513 1497 
Q 3513 744 3044 326 
Q 2575 -91 1722 -91 
Q 1428 -91 1123 -41 
Q 819 9 494 109 
L 494 744 
Q 775 591 1075 516 
Q 1375 441 1709 441 
Q 2250 441 2565 725 
Q 2881 1009 2881 1497 
Q 2881 1984 2565 2268 
Q 2250 2553 1709 2553 
Q 1456 2553 1204 2497 
Q 953 2441 691 2322 
L 691 4666 
z
" transform="scale(0.015625)"/>
       </defs>
       <use xlink:href="#DejaVuSans-35"/>
       <use xlink:href="#DejaVuSans-30" transform="translate(63.623047 0)"/>
      </g>
     </g>
    </g>
    <g id="xtick_7">
     <g id="line2d_7">
      <g>
       <use xlink:href="#m7b7d724cc6" x="558.855" y="318.04" style="stroke: #000000; stroke-width: 0.8"/>
      </g>
     </g>
     <g id="text_7">
      <!-- 60 -->
      <g transform="translate(552.4925 332.638438) scale(0.1 -0.1)">
       <defs>
        <path id="DejaVuSans-36" d="M 2113 2584 
Q 1688 2584 1439 2293 
Q 1191 2003 1191 1497 
Q 1191 994 1439 701 
Q 1688 409 2113 409 
Q 2538 409 2786 701 
Q 3034 994 3034 1497 
Q 3034 2003 2786 2293 
Q 2538 2584 2113 2584 
z
M 3366 4563 
L 3366 3988 
Q 3128 4100 2886 4159 
Q 2644 4219 2406 4219 
Q 1781 4219 1451 3797 
Q 1122 3375 1075 2522 
Q 1259 2794 1537 2939 
Q 1816 3084 2150 3084 
Q 2853 3084 3261 2657 
Q 3669 2231 3669 1497 
Q 3669 778 3244 343 
Q 2819 -91 2113 -91 
Q 1303 -91 875 529 
Q 447 1150 447 2328 
Q 447 3434 972 4092 
Q 1497 4750 2381 4750 
Q 2619 4750 2861 4703 
Q 3103 4656 3366 4563 
z
" transform="scale(0.015625)"/>
       </defs>
       <use xlink:href="#DejaVuSans-36"/>
       <use xlink:href="#DejaVuSans-30" transform="translate(63.623047 0)"/>
      </g>
     </g>
    </g>
    <g id="text_8">
     <!-- Time (s) -->
     <g transform="translate(284.533594 346.316563) scale(0.1 -0.1)">
      <defs>
       <path id="DejaVuSans-54" d="M -19 4666 
L 3928 4666 
L 3928 4134 
L 2272 4134 
L 2272 0 
L 1638 0 
L 1638 4134 
L -19 4134 
L -19 4666 
z
" transform="scale(0.015625)"/>
       <path id="DejaVuSans-69" d="M 603 3500 
L 1178 3500 
L 1178 0 
L 603 0 
L 603 3500 
z
M 603 4863 
L 1178 4863 
L 1178 4134 
L 603 4134 
L 603 4863 
z
" transform="scale(0.015625)"/>
       <path id="DejaVuSans-6d" d="M 3328 2828 
Q 3544 3216 3844 3400 
Q 4144 3584 4550 3584 
Q 5097 3584 5394 3201 
Q 5691 2819 5691 2113 
L 5691 0 
L 5113 0 
L 5113 2094 
Q 5113 2597 4934 2840 
Q 4756 3084 4391 3084 
Q 3944 3084 3684 2787 
Q 3425 2491 3425 1978 
L 3425 0 
L 2847 0 
L 2847 2094 
Q 2847 2600 2669 2842 
Q 2491 3084 2119 3084 
Q 1678 3084 1418 2786 
Q 1159 2488 1159 1978 
L 1159 0 
L 581 0 
L 581 3500 
L 1159 3500 
L 1159 2956 
Q 1356 3278 1631 3431 
Q 1906 3584 2284 3584 
Q 2666 3584 2933 3390 
Q 3200 3197 3328 2828 
z
" transform="scale(0.015625)"/>
       <path id="DejaVuSans-65" d="M 3597 1894 
L 3597 1613 
L 953 1613 
Q 991 1019 1311 708 
Q 1631 397 2203 397 
Q 2534 397 2845 478 
Q 3156 559 3463 722 
L 3463 178 
Q 3153 47 2828 -22 
Q 2503 -91 2169 -91 
Q 1331 -91 842 396 
Q 353 884 353 1716 
Q 353 2575 817 3079 
Q 1281 3584 2069 3584 
Q 2775 3584 3186 3129 
Q 3597 2675 3597 1894 
z
M 3022 2063 
Q 3016 2534 2758 2815 
Q 2500 3097 2075 3097 
Q 1594 3097 1305 2825 
Q 1016 2553 972 2059 
L 3022 2063 
z
" transform="scale(0.015625)"/>
       <path id="DejaVuSans-20" transform="scale(0.015625)"/>
       <path id="DejaVuSans-28" d="M 1984 4856 
Q 1566 4138 1362 3434 
Q 1159 2731 1159 2009 
Q 1159 1288 1364 580 
Q 1569 -128 1984 -844 
L 1484 -844 
Q 1016 -109 783 600 
Q 550 1309 550 2009 
Q 550 2706 781 3412 
Q 1013 4119 1484 4856 
L 1984 4856 
z
" transform="scale(0.015625)"/>
       <path id="DejaVuSans-73" d="M 2834 3397 
L 2834 2853 
Q 2591 2978 2328 3040 
Q 2066 3103 1784 3103 
Q 1356 3103 1142 2972 
Q 928 2841 928 2578 
Q 928 2378 1081 2264 
Q 1234 2150 1697 2047 
L 1894 2003 
Q 2506 1872 2764 1633 
Q 3022 1394 3022 966 
Q 3022 478 2636 193 
Q 2250 -91 1575 -91 
Q 1294 -91 989 -36 
Q 684 19 347 128 
L 347 722 
Q 666 556 975 473 
Q 1284 391 1588 391 
Q 1994 391 2212 530 
Q 2431 669 2431 922 
Q 2431 1156 2273 1281 
Q 2116 1406 1581 1522 
L 1381 1569 
Q 847 1681 609 1914 
Q 372 2147 372 2553 
Q 372 3047 722 3315 
Q 1072 3584 1716 3584 
Q 2034 3584 2315 3537 
Q 2597 3491 2834 3397 
z
" transform="scale(0.015625)"/>
       <path id="DejaVuSans-29" d="M 513 4856 
L 1013 4856 
Q 1481 4119 1714 3412 
Q 1947 2706 1947 2009 
Q 1947 1309 1714 600 
Q 1481 -109 1013 -844 
L 513 -844 
Q 928 -128 1133 580 
Q 1338 1288 1338 2009 
Q 1338 2731 1133 3434 
Q 928 4138 513 4856 
z
" transform="scale(0.015625)"/>
      </defs>
      <use xlink:href="#DejaVuSans-54"/>
      <use xlink:href="#DejaVuSans-69" transform="translate(57.958984 0)"/>
      <use xlink:href="#DejaVuSans-6d" transform="translate(85.742188 0)"/>
      <use xlink:href="#DejaVuSans-65" transform="translate(183.154297 0)"/>
      <use xlink:href="#DejaVuSans-20" transform="translate(244.677734 0)"/>
      <use xlink:href="#DejaVuSans-28" transform="translate(276.464844 0)"/>
      <use xlink:href="#DejaVuSans-73" transform="translate(315.478516 0)"/>
      <use xlink:href="#DejaVuSans-29" transform="translate(367.578125 0)"/>
     </g>
    </g>
   </g>
   <g id="matplotlib.axis_2">
    <g id="ytick_1">
     <g id="line2d_8">
      <defs>
       <path id="m0629c119df" d="M 0 0 
L -3.5 0 
" style="stroke: #000000; stroke-width: 0.8"/>
      </defs>
      <g>
       <use xlink:href="#m0629c119df" x="50.87" y="318.04" style="stroke: #000000; stroke-width: 0.8"/>
      </g>
     </g>
     <g id="text_9">
      <!-- 100 -->
      <g transform="translate(24.7825 321.839219) scale(0.1 -0.1)">
       <use xlink:href="#DejaVuSans-31"/>
       <use xlink:href="#DejaVuSans-30" transform="translate(63.623047 0)"/>
       <use xlink:href="#DejaVuSans-30" transform="translate(127.246094 0)"/>
      </g>
     </g>
    </g>
    <g id="ytick_2">
     <g id="line2d_9">
      <g>
       <use xlink:href="#m0629c119df" x="50.87" y="270.772308" style="stroke: #000000; stroke-width: 0.8"/>
      </g>
     </g>
     <g id="text_10">
      <!-- 200 -->
      <g transform="translate(24.7825 274.571526) scale(0.1 -0.1)">
       <use xlink:href="#DejaVuSans-32"/>
       <use xlink:href="#DejaVuSans-30" transform="translate(63.623047 0)"/>
       <use xlink:href="#DejaVuSans-30" transform="translate(127.246094 0)"/>
      </g>
     </g>
    </g>
    <g id="ytick_3">
     <g id="line2d_10">
      <g>
       <use xlink:href="#m0629c119df" x="50.87" y="223.504615" style="stroke: #000000; stroke-width: 0.8"/>
      </g>
     </g>
     <g id="text_11">
      <!-- 300 -->
      <g transform="translate(24.7825 227.303834) scale(0.1 -0.1)">
       <use xlink:href="#DejaVuSans-33"/>
       <use xlink:href="#DejaVuSans-30" transform="translate(63.623047 0)"/>
       <use xlink:href="#DejaVuSans-30" transform="translate(127.246094 0)"/>
      </g>
     </g>
    </g>
    <g id="ytick_4">
     <g id="line2d_11">
      <g>
       <use xlink:href="#m0629c119df" x="50.87" y="176.236923" style="stroke: #000000; stroke-width: 0.8"/>
      </g>
     </g>
     <g id="text_12">
      <!-- 400 -->
      <g transform="translate(24.7825 180.036142) scale(0.1 -0.1)">
       <use xlink:href="#DejaVuSans-34"/>
       <use xlink:href="#DejaVuSans-30" transform="translate(63.623047 0)"/>
       <use xlink:href="#DejaVuSans-30" transform="translate(127.246094 0)"/>
      </g>
     </g>
    </g>
    <g id="ytick_5">
     <g id="line2d_12">
      <g>
       <use xlink:href="#m0629c119df" x="50.87" y="128.969231" style="stroke: #000000; stroke-width: 0.8"/>
      </g>
     </g>
     <g id="text_13">
      <!-- 500 -->
      <g transform="translate(24.7825 132.76845) scale(0.1 -0.1)">
       <use xlink:href="#DejaVuSans-35"/>
       <use xlink:href="#DejaVuSans-30" transform="translate(63.623047 0)"/>
       <use xlink:href="#DejaVuSans-30" transform="translate(127.246094 0)"/>
      </g>
     </g>
    </g>
    <g id="ytick_6">
     <g id="line2d_13">
      <g>
       <use xlink:href="#m0629c119df" x="50.87" y="81.701538" style="stroke: #000000; stroke-width: 0.8"/>
      </g>
     </g>
     <g id="text_14">
      <!-- 600 -->
      <g transform="translate(24.7825 85.500757) scale(0.1 -0.1)">
       <use xlink:href="#DejaVuSans-36"/>
       <use xlink:href="#DejaVuSans-30" transform="translate(63.623047 0)"/>
       <use xlink:href="#DejaVuSans-30" transform="translate(127.246094 0)"/>
      </g>
     </g>
    </g>
    <g id="ytick_7">
     <g id="line2d_14">
      <g>
       <use xlink:href="#m0629c119df" x="50.87" y="34.433846" style="stroke: #000000; stroke-width: 0.8"/>
      </g>
     </g>
     <g id="text_15">
      <!-- 700 -->
      <g transform="translate(24.7825 38.233065) scale(0.1 -0.1)">
       <defs>
        <path id="DejaVuSans-37" d="M 525 4666 
L 3525 4666 
L 3525 4397 
L 1831 0 
L 1172 0 
L 2766 4134 
L 525 4134 
L 525 4666 
z
" transform="scale(0.015625)"/>
       </defs>
       <use xlink:href="#DejaVuSans-37"/>
       <use xlink:href="#DejaVuSans-30" transform="translate(63.623047 0)"/>
       <use xlink:href="#DejaVuSans-30" transform="translate(127.246094 0)"/>
      </g>
     </g>
    </g>
    <g id="text_16">
     <!-- Frequency (Hz) -->
     <g transform="translate(18.702813 202.124688) rotate(-90) scale(0.1 -0.1)">
      <defs>
       <path id="DejaVuSans-46" d="M 628 4666 
L 3309 4666 
L 3309 4134 
L 1259 4134 
L 1259 2759 
L 3109 2759 
L 3109 2228 
L 1259 2228 
L 1259 0 
L 628 0 
L 628 4666 
z
" transform="scale(0.015625)"/>
       <path id="DejaVuSans-72" d="M 2631 2963 
Q 2534 3019 2420 3045 
Q 2306 3072 2169 3072 
Q 1681 3072 1420 2755 
Q 1159 2438 1159 1844 
L 1159 0 
L 581 0 
L 581 3500 
L 1159 3500 
L 1159 2956 
Q 1341 3275 1631 3429 
Q 1922 3584 2338 3584 
Q 2397 3584 2469 3576 
Q 2541 3569 2628 3553 
L 2631 2963 
z
" transform="scale(0.015625)"/>
       <path id="DejaVuSans-71" d="M 947 1747 
Q 947 1113 1208 752 
Q 1469 391 1925 391 
Q 2381 391 2643 752 
Q 2906 1113 2906 1747 
Q 2906 2381 2643 2742 
Q 2381 3103 1925 3103 
Q 1469 3103 1208 2742 
Q 947 2381 947 1747 
z
M 2906 525 
Q 2725 213 2448 61 
Q 2172 -91 1784 -91 
Q 1150 -91 751 415 
Q 353 922 353 1747 
Q 353 2572 751 3078 
Q 1150 3584 1784 3584 
Q 2172 3584 2448 3432 
Q 2725 3281 2906 2969 
L 2906 3500 
L 3481 3500 
L 3481 -1331 
L 2906 -1331 
L 2906 525 
z
" transform="scale(0.015625)"/>
       <path id="DejaVuSans-75" d="M 544 1381 
L 544 3500 
L 1119 3500 
L 1119 1403 
Q 1119 906 1312 657 
Q 1506 409 1894 409 
Q 2359 409 2629 706 
Q 2900 1003 2900 1516 
L 2900 3500 
L 3475 3500 
L 3475 0 
L 2900 0 
L 2900 538 
Q 2691 219 2414 64 
Q 2138 -91 1772 -91 
Q 1169 -91 856 284 
Q 544 659 544 1381 
z
M 1991 3584 
L 1991 3584 
z
" transform="scale(0.015625)"/>
       <path id="DejaVuSans-6e" d="M 3513 2113 
L 3513 0 
L 2938 0 
L 2938 2094 
Q 2938 2591 2744 2837 
Q 2550 3084 2163 3084 
Q 1697 3084 1428 2787 
Q 1159 2491 1159 1978 
L 1159 0 
L 581 0 
L 581 3500 
L 1159 3500 
L 1159 2956 
Q 1366 3272 1645 3428 
Q 1925 3584 2291 3584 
Q 2894 3584 3203 3211 
Q 3513 2838 3513 2113 
z
" transform="scale(0.015625)"/>
       <path id="DejaVuSans-63" d="M 3122 3366 
L 3122 2828 
Q 2878 2963 2633 3030 
Q 2388 3097 2138 3097 
Q 1578 3097 1268 2742 
Q 959 2388 959 1747 
Q 959 1106 1268 751 
Q 1578 397 2138 397 
Q 2388 397 2633 464 
Q 2878 531 3122 666 
L 3122 134 
Q 2881 22 2623 -34 
Q 2366 -91 2075 -91 
Q 1284 -91 818 406 
Q 353 903 353 1747 
Q 353 2603 823 3093 
Q 1294 3584 2113 3584 
Q 2378 3584 2631 3529 
Q 2884 3475 3122 3366 
z
" transform="scale(0.015625)"/>
       <path id="DejaVuSans-79" d="M 2059 -325 
Q 1816 -950 1584 -1140 
Q 1353 -1331 966 -1331 
L 506 -1331 
L 506 -850 
L 844 -850 
Q 1081 -850 1212 -737 
Q 1344 -625 1503 -206 
L 1606 56 
L 191 3500 
L 800 3500 
L 1894 763 
L 2988 3500 
L 3597 3500 
L 2059 -325 
z
" transform="scale(0.015625)"/>
       <path id="DejaVuSans-48" d="M 628 4666 
L 1259 4666 
L 1259 2753 
L 3553 2753 
L 3553 4666 
L 4184 4666 
L 4184 0 
L 3553 0 
L 3553 2222 
L 1259 2222 
L 1259 0 
L 628 0 
L 628 4666 
z
" transform="scale(0.015625)"/>
       <path id="DejaVuSans-7a" d="M 353 3500 
L 3084 3500 
L 3084 2975 
L 922 459 
L 3084 459 
L 3084 0 
L 275 0 
L 275 525 
L 2438 3041 
L 353 3041 
L 353 3500 
z
" transform="scale(0.015625)"/>
      </defs>
      <use xlink:href="#DejaVuSans-46"/>
      <use xlink:href="#DejaVuSans-72" transform="translate(50.269531 0)"/>
      <use xlink:href="#DejaVuSans-65" transform="translate(89.132812 0)"/>
      <use xlink:href="#DejaVuSans-71" transform="translate(150.65625 0)"/>
      <use xlink:href="#DejaVuSans-75" transform="translate(214.132812 0)"/>
      <use xlink:href="#DejaVuSans-65" transform="translate(277.511719 0)"/>
      <use xlink:href="#DejaVuSans-6e" transform="translate(339.035156 0)"/>
      <use xlink:href="#DejaVuSans-63" transform="translate(402.414062 0)"/>
      <use xlink:href="#DejaVuSans-79" transform="translate(457.394531 0)"/>
      <use xlink:href="#DejaVuSans-20" transform="translate(516.574219 0)"/>
      <use xlink:href="#DejaVuSans-28" transform="translate(548.361328 0)"/>
      <use xlink:href="#DejaVuSans-48" transform="translate(587.375 0)"/>
      <use xlink:href="#DejaVuSans-7a" transform="translate(662.570312 0)"/>
      <use xlink:href="#DejaVuSans-29" transform="translate(715.060547 0)"/>
     </g>
    </g>
   </g>
   <g id="line2d_15">
    <path d="M 50.87 281.738412 
L 55.103208 281.738412 
L 55.103208 279.280492 
L 59.336417 279.280492 
L 59.336417 276.775305 
L 63.569625 276.775305 
L 63.569625 274.175582 
L 67.802833 274.175582 
L 67.802833 271.481323 
L 72.036042 271.481323 
L 72.036042 268.739797 
L 76.26925 268.739797 
L 76.26925 265.903735 
L 80.502458 265.903735 
L 80.502458 263.020406 
L 84.735667 263.020406 
L 84.735667 259.995274 
L 88.968875 259.995274 
L 88.968875 256.922874 
L 93.202083 256.922874 
L 93.202083 253.755938 
L 97.435292 253.755938 
L 97.435292 250.494468 
L 101.6685 250.494468 
L 101.6685 247.138462 
L 105.901708 247.138462 
L 105.901708 243.640652 
L 110.134917 243.640652 
L 110.134917 240.095575 
L 114.368125 240.095575 
L 114.368125 236.408695 
L 118.601333 236.408695 
L 118.601333 232.62728 
L 122.834542 232.62728 
L 122.834542 228.751329 
L 127.06775 228.751329 
L 127.06775 224.780843 
L 131.300958 224.780843 
L 131.300958 220.621286 
L 135.534167 220.621286 
L 135.534167 216.414462 
L 139.767375 216.414462 
L 139.767375 212.018566 
L 144.000583 212.018566 
L 144.000583 207.528135 
L 148.233792 207.528135 
L 148.233792 202.943169 
L 152.467 202.943169 
L 152.467 198.169132 
M 152.467 281.738412 
L 156.700208 281.738412 
L 156.700208 279.280492 
L 160.933417 279.280492 
L 160.933417 276.775305 
L 165.166625 276.775305 
L 165.166625 274.175582 
L 169.399833 274.175582 
L 169.399833 271.481323 
L 173.633042 271.481323 
L 173.633042 268.739797 
L 177.86625 268.739797 
L 177.86625 265.903735 
L 182.099458 265.903735 
L 182.099458 263.020406 
L 186.332667 263.020406 
L 186.332667 259.995274 
L 190.565875 259.995274 
L 190.565875 256.922874 
L 194.799083 256.922874 
L 194.799083 253.755938 
L 199.032292 253.755938 
L 199.032292 250.494468 
L 203.2655 250.494468 
L 203.2655 247.138462 
L 207.498708 247.138462 
L 207.498708 243.640652 
L 211.731917 243.640652 
L 211.731917 240.095575 
L 215.965125 240.095575 
L 215.965125 236.408695 
L 220.198333 236.408695 
L 220.198333 232.62728 
L 224.431542 232.62728 
L 224.431542 228.751329 
L 228.66475 228.751329 
L 228.66475 224.780843 
L 232.897958 224.780843 
L 232.897958 220.621286 
L 237.131167 220.621286 
L 237.131167 216.414462 
L 241.364375 216.414462 
L 241.364375 212.018566 
L 245.597583 212.018566 
L 245.597583 207.528135 
L 249.830792 207.528135 
L 249.830792 202.943169 
L 254.064 202.943169 
L 254.064 198.169132 
M 254.064 281.738412 
L 258.297208 281.738412 
L 258.297208 279.280492 
L 262.530417 279.280492 
L 262.530417 276.775305 
L 266.763625 276.775305 
L 266.763625 274.175582 
L 270.996833 274.175582 
L 270.996833 271.481323 
L 275.230042 271.481323 
L 275.230042 268.739797 
L 279.46325 268.739797 
L 279.46325 265.903735 
L 283.696458 265.903735 
L 283.696458 263.020406 
L 287.929667 263.020406 
L 287.929667 259.995274 
L 292.162875 259.995274 
L 292.162875 256.922874 
L 296.396083 256.922874 
L 296.396083 253.755938 
L 300.629292 253.755938 
L 300.629292 250.494468 
L 304.8625 250.494468 
L 304.8625 247.138462 
L 309.095708 247.138462 
L 309.095708 243.640652 
L 313.328917 243.640652 
L 313.328917 240.095575 
L 317.562125 240.095575 
L 317.562125 236.408695 
L 321.795333 236.408695 
L 321.795333 232.62728 
L 326.028542 232.62728 
L 326.028542 228.751329 
L 330.26175 228.751329 
L 330.26175 224.780843 
L 334.494958 224.780843 
L 334.494958 220.621286 
L 338.728167 220.621286 
L 338.728167 216.414462 
L 342.961375 216.414462 
L 342.961375 212.018566 
L 347.194583 212.018566 
L 347.194583 207.528135 
L 351.427792 207.528135 
L 351.427792 202.943169 
L 355.661 202.943169 
L 355.661 198.169132 
M 355.661 281.738412 
L 359.894208 281.738412 
L 359.894208 279.280492 
L 364.127417 279.280492 
L 364.127417 276.775305 
L 368.360625 276.775305 
L 368.360625 274.175582 
L 372.593833 274.175582 
L 372.593833 271.481323 
L 376.827042 271.481323 
L 376.827042 268.739797 
L 381.06025 268.739797 
L 381.06025 265.903735 
L 385.293458 265.903735 
L 385.293458 263.020406 
L 389.526667 263.020406 
L 389.526667 259.995274 
L 393.759875 259.995274 
L 393.759875 256.922874 
L 397.993083 256.922874 
L 397.993083 253.755938 
L 402.226292 253.755938 
L 402.226292 250.494468 
L 406.4595 250.494468 
L 406.4595 247.138462 
L 410.692708 247.138462 
L 410.692708 243.640652 
L 414.925917 243.640652 
L 414.925917 240.095575 
L 419.159125 240.095575 
L 419.159125 236.408695 
L 423.392333 236.408695 
L 423.392333 232.62728 
L 427.625542 232.62728 
L 427.625542 228.751329 
L 431.85875 228.751329 
L 431.85875 224.780843 
L 436.091958 224.780843 
L 436.091958 220.621286 
L 440.325167 220.621286 
L 440.325167 216.414462 
L 444.558375 216.414462 
L 444.558375 212.018566 
L 448.791583 212.018566 
L 448.791583 207.528135 
L 453.024792 207.528135 
L 453.024792 202.943169 
L 457.258 202.943169 
L 457.258 198.169132 
M 457.258 281.738412 
L 461.491208 281.738412 
L 461.491208 279.280492 
L 465.724417 279.280492 
L 465.724417 276.775305 
L 469.957625 276.775305 
L 469.957625 274.175582 
L 474.190833 274.175582 
L 474.190833 271.481323 
L 478.424042 271.481323 
L 478.424042 268.739797 
L 482.65725 268.739797 
L 482.65725 265.903735 
L 486.890458 265.903735 
L 486.890458 263.020406 
L 491.123667 263.020406 
L 491.123667 259.995274 
L 495.356875 259.995274 
L 495.356875 256.922874 
L 499.590083 256.922874 
L 499.590083 253.755938 
L 503.823292 253.755938 
L 503.823292 250.494468 
L 508.0565 250.494468 
L 508.0565 247.138462 
L 512.289708 247.138462 
L 512.289708 243.640652 
L 516.522917 243.640652 
L 516.522917 240.095575 
L 520.756125 240.095575 
L 520.756125 236.408695 
L 524.989333 236.408695 
L 524.989333 232.62728 
L 529.222542 232.62728 
L 529.222542 228.751329 
L 533.45575 228.751329 
L 533.45575 224.780843 
L 537.688958 224.780843 
L 537.688958 220.621286 
L 541.922167 220.621286 
L 541.922167 216.414462 
L 546.155375 216.414462 
L 546.155375 212.018566 
L 550.388583 212.018566 
L 550.388583 207.528135 
L 554.621792 207.528135 
L 554.621792 202.943169 
L 558.855 202.943169 
L 558.855 198.169132 
L 558.855 198.169132 
" clip-path="url(#p4950b158a7)" style="fill: none; stroke: #ff0000; stroke-width: 2; stroke-linecap: square"/>
   </g>
   <g id="line2d_16">
    <path d="M 50.87 198.169132 
L 55.103208 198.169132 
L 55.103208 193.253292 
L 59.336417 193.253292 
L 59.336417 188.242917 
L 63.569625 188.242917 
L 63.569625 183.043471 
L 67.802833 183.043471 
L 67.802833 177.702222 
L 72.036042 177.702222 
L 72.036042 172.219169 
L 76.26925 172.219169 
L 76.26925 166.547046 
L 80.502458 166.547046 
L 80.502458 160.73312 
L 84.735667 160.73312 
L 84.735667 154.730123 
L 88.968875 154.730123 
L 88.968875 148.538055 
L 93.202083 148.538055 
L 93.202083 142.204185 
L 97.435292 142.204185 
L 97.435292 135.681243 
L 101.6685 135.681243 
L 101.6685 128.921963 
L 105.901708 128.921963 
L 105.901708 122.02088 
L 110.134917 122.02088 
L 110.134917 114.883458 
L 114.368125 114.883458 
L 114.368125 107.556966 
L 118.601333 107.556966 
L 118.601333 99.994135 
L 122.834542 99.994135 
L 122.834542 92.194966 
L 127.06775 92.194966 
L 127.06775 84.206726 
L 131.300958 84.206726 
L 131.300958 75.982148 
L 135.534167 75.982148 
L 135.534167 67.521231 
L 139.767375 67.521231 
L 139.767375 58.776708 
L 144.000583 58.776708 
L 144.000583 49.795846 
L 148.233792 49.795846 
L 148.233792 40.531378 
L 152.467 40.531378 
L 152.467 31.030572 
M 152.467 198.169132 
L 156.700208 198.169132 
L 156.700208 193.253292 
L 160.933417 193.253292 
L 160.933417 188.242917 
L 165.166625 188.242917 
L 165.166625 183.043471 
L 169.399833 183.043471 
L 169.399833 177.702222 
L 173.633042 177.702222 
L 173.633042 172.219169 
L 177.86625 172.219169 
L 177.86625 166.547046 
L 182.099458 166.547046 
L 182.099458 160.73312 
L 186.332667 160.73312 
L 186.332667 154.730123 
L 190.565875 154.730123 
L 190.565875 148.538055 
L 194.799083 148.538055 
L 194.799083 142.204185 
L 199.032292 142.204185 
L 199.032292 135.681243 
L 203.2655 135.681243 
L 203.2655 128.921963 
L 207.498708 128.921963 
L 207.498708 122.02088 
L 211.731917 122.02088 
L 211.731917 114.883458 
L 215.965125 114.883458 
L 215.965125 107.556966 
L 220.198333 107.556966 
L 220.198333 99.994135 
L 224.431542 99.994135 
L 224.431542 92.194966 
L 228.66475 92.194966 
L 228.66475 84.206726 
L 232.897958 84.206726 
L 232.897958 75.982148 
L 237.131167 75.982148 
L 237.131167 67.521231 
L 241.364375 67.521231 
L 241.364375 58.776708 
L 245.597583 58.776708 
L 245.597583 49.795846 
L 249.830792 49.795846 
L 249.830792 40.531378 
L 254.064 40.531378 
L 254.064 31.030572 
M 254.064 198.169132 
L 258.297208 198.169132 
L 258.297208 193.253292 
L 262.530417 193.253292 
L 262.530417 188.242917 
L 266.763625 188.242917 
L 266.763625 183.043471 
L 270.996833 183.043471 
L 270.996833 177.702222 
L 275.230042 177.702222 
L 275.230042 172.219169 
L 279.46325 172.219169 
L 279.46325 166.547046 
L 283.696458 166.547046 
L 283.696458 160.73312 
L 287.929667 160.73312 
L 287.929667 154.730123 
L 292.162875 154.730123 
L 292.162875 148.538055 
L 296.396083 148.538055 
L 296.396083 142.204185 
L 300.629292 142.204185 
L 300.629292 135.681243 
L 304.8625 135.681243 
L 304.8625 128.921963 
L 309.095708 128.921963 
L 309.095708 122.02088 
L 313.328917 122.02088 
L 313.328917 114.883458 
L 317.562125 114.883458 
L 317.562125 107.556966 
L 321.795333 107.556966 
L 321.795333 99.994135 
L 326.028542 99.994135 
L 326.028542 92.194966 
L 330.26175 92.194966 
L 330.26175 84.206726 
L 334.494958 84.206726 
L 334.494958 75.982148 
L 338.728167 75.982148 
L 338.728167 67.521231 
L 342.961375 67.521231 
L 342.961375 58.776708 
L 347.194583 58.776708 
L 347.194583 49.795846 
L 351.427792 49.795846 
L 351.427792 40.531378 
L 355.661 40.531378 
L 355.661 31.030572 
M 355.661 198.169132 
L 359.894208 198.169132 
L 359.894208 193.253292 
L 364.127417 193.253292 
L 364.127417 188.242917 
L 368.360625 188.242917 
L 368.360625 183.043471 
L 372.593833 183.043471 
L 372.593833 177.702222 
L 376.827042 177.702222 
L 376.827042 172.219169 
L 381.06025 172.219169 
L 381.06025 166.547046 
L 385.293458 166.547046 
L 385.293458 160.73312 
L 389.526667 160.73312 
L 389.526667 154.730123 
L 393.759875 154.730123 
L 393.759875 148.538055 
L 397.993083 148.538055 
L 397.993083 142.204185 
L 402.226292 142.204185 
L 402.226292 135.681243 
L 406.4595 135.681243 
L 406.4595 128.921963 
L 410.692708 128.921963 
L 410.692708 122.02088 
L 414.925917 122.02088 
L 414.925917 114.883458 
L 419.159125 114.883458 
L 419.159125 107.556966 
L 423.392333 107.556966 
L 423.392333 99.994135 
L 427.625542 99.994135 
L 427.625542 92.194966 
L 431.85875 92.194966 
L 431.85875 84.206726 
L 436.091958 84.206726 
L 436.091958 75.982148 
L 440.325167 75.982148 
L 440.325167 67.521231 
L 444.558375 67.521231 
L 444.558375 58.776708 
L 448.791583 58.776708 
L 448.791583 49.795846 
L 453.024792 49.795846 
L 453.024792 40.531378 
L 457.258 40.531378 
L 457.258 31.030572 
M 457.258 198.169132 
L 461.491208 198.169132 
L 461.491208 193.253292 
L 465.724417 193.253292 
L 465.724417 188.242917 
L 469.957625 188.242917 
L 469.957625 183.043471 
L 474.190833 183.043471 
L 474.190833 177.702222 
L 478.424042 177.702222 
L 478.424042 172.219169 
L 482.65725 172.219169 
L 482.65725 166.547046 
L 486.890458 166.547046 
L 486.890458 160.73312 
L 491.123667 160.73312 
L 491.123667 154.730123 
L 495.356875 154.730123 
L 495.356875 148.538055 
L 499.590083 148.538055 
L 499.590083 142.204185 
L 503.823292 142.204185 
L 503.823292 135.681243 
L 508.0565 135.681243 
L 508.0565 128.921963 
L 512.289708 128.921963 
L 512.289708 122.02088 
L 516.522917 122.02088 
L 516.522917 114.883458 
L 520.756125 114.883458 
L 520.756125 107.556966 
L 524.989333 107.556966 
L 524.989333 99.994135 
L 529.222542 99.994135 
L 529.222542 92.194966 
L 533.45575 92.194966 
L 533.45575 84.206726 
L 537.688958 84.206726 
L 537.688958 75.982148 
L 541.922167 75.982148 
L 541.922167 67.521231 
L 546.155375 67.521231 
L 546.155375 58.776708 
L 550.388583 58.776708 
L 550.388583 49.795846 
L 554.621792 49.795846 
L 554.621792 40.531378 
L 558.855 40.531378 
L 558.855 31.030572 
L 558.855 31.030572 
" clip-path="url(#p4950b158a7)" style="fill: none; stroke: #0000ff; stroke-width: 2; stroke-linecap: square"/>
   </g>
   <g id="patch_3">
    <path d="M 50.87 318.04 
L 50.87 10.8 
" style="fill: none; stroke: #000000; stroke-width: 0.8; stroke-linejoin: miter; stroke-linecap: square"/>
   </g>
   <g id="patch_4">
    <path d="M 558.855 318.04 
L 558.855 10.8 
" style="fill: none; stroke: #000000; stroke-width: 0.8; stroke-linejoin: miter; stroke-linecap: square"/>
   </g>
   <g id="patch_5">
    <path d="M 50.87 318.04 
L 558.855 318.04 
" style="fill: none; stroke: #000000; stroke-width: 0.8; stroke-linejoin: miter; stroke-linecap: square"/>
   </g>
   <g id="patch_6">
    <path d="M 50.87 10.8 
L 558.855 10.8 
" style="fill: none; stroke: #000000; stroke-width: 0.8; stroke-linejoin: miter; stroke-linecap: square"/>
   </g>
  </g>
 </g>
 <defs>
  <clipPath id="p4950b158a7">
   <rect x="50.87" y="10.8" width="507.985" height="307.24"/>
  </clipPath>
 </defs>
</svg>
