<?xml version="1.0" encoding="utf-8" standalone="no"?>
<!DOCTYPE svg PUBLIC "-//W3C//DTD SVG 1.1//EN"
  "http://www.w3.org/Graphics/SVG/1.1/DTD/svg11.dtd">
<svg xmlns:xlink="http://www.w3.org/1999/xlink" width="360pt" height="216pt" viewBox="0 0 360 216" xmlns="http://www.w3.org/2000/svg" version="1.1">
 <metadata>
  <rdf:RDF xmlns:dc="http://purl.org/dc/elements/1.1/" xmlns:cc="http://creativecommons.org/ns#" xmlns:rdf="http://www.w3.org/1999/02/22-rdf-syntax-ns#">
   <cc:Work>
    <dc:type rdf:resource="http://purl.org/dc/dcmitype/StillImage"/>
    <dc:date>2026-01-08T15:42:21.765220</dc:date>
    <dc:format>image/svg+xml</dc:format>
    <dc:creator>
     <cc:Agent>
      <dc:title>Matplotlib v3.10.7, https://matplotlib.org/</dc:title>
     </cc:Agent>
    </dc:creator>
   </cc:Work>
  </rdf:RDF>
 </metadata>
 <defs>
  <style type="text/css">*{stroke-linejoin: round; stroke-linecap: butt}</style>
 </defs>
 <g id="figure_1">
  <g id="patch_1">
   <path d="M 0 216 
L 360 216 
L 360 0 
L 0 0 
z
" style="fill: #ffffff"/>
  </g>
  <g id="axes_1">
   <g id="patch_2">
    <path d="M 49.026875 173.92 
L 342.6075 173.92 
L 342.6075 11.88 
L 49.026875 11.88 
z
" style="fill: #ffffff"/>
   </g>
   <g id="matplotlib.axis_1">
    <g id="xtick_1">
     <g id="line2d_1">
      <defs>
       <path id="m0ba2b87aca" d="M 0 0 
L 0 3.5 
" style="stroke: #000000; stroke-width: 0.8"/>
      </defs>
      <g>
       <use xlink:href="#m0ba2b87aca" x="49.026875" y="173.92" style="stroke: #000000; stroke-width: 0.8"/>
      </g>
     </g>
     <g id="text_1">
      <!-- 0 -->
      <g transform="translate(46.276875 188.558125) scale(0.11 -0.11)">
       <defs>
        <path id="TimesNewRomanPSMT-30" d="M 231 2094 
Q 231 2819 450 3342 
Q 669 3866 1031 4122 
Q 1313 4325 1613 4325 
Q 2100 4325 2488 3828 
Q 2972 3213 2972 2159 
Q 2972 1422 2759 906 
Q 2547 391 2217 158 
Q 1888 -75 1581 -75 
Q 975 -75 572 641 
Q 231 1244 231 2094 
z
M 844 2016 
Q 844 1141 1059 588 
Q 1238 122 1591 122 
Q 1759 122 1940 273 
Q 2122 425 2216 781 
Q 2359 1319 2359 2297 
Q 2359 3022 2209 3506 
Q 2097 3866 1919 4016 
Q 1791 4119 1609 4119 
Q 1397 4119 1231 3928 
Q 1006 3669 925 3112 
Q 844 2556 844 2016 
z
" transform="scale(0.015625)"/>
       </defs>
       <use xlink:href="#TimesNewRomanPSMT-30"/>
      </g>
     </g>
    </g>
    <g id="xtick_2">
     <g id="line2d_2">
      <g>
       <use xlink:href="#m0ba2b87aca" x="97.956979" y="173.92" style="stroke: #000000; stroke-width: 0.8"/>
      </g>
     </g>
     <g id="text_2">
      <!-- 10 -->
      <g transform="translate(92.456979 188.558125) scale(0.11 -0.11)">
       <defs>
        <path id="TimesNewRomanPSMT-31" d="M 750 3822 
L 1781 4325 
L 1884 4325 
L 1884 747 
Q 1884 391 1914 303 
Q 1944 216 2037 169 
Q 2131 122 2419 116 
L 2419 0 
L 825 0 
L 825 116 
Q 1125 122 1212 167 
Q 1300 213 1334 289 
Q 1369 366 1369 747 
L 1369 3034 
Q 1369 3497 1338 3628 
Q 1316 3728 1258 3775 
Q 1200 3822 1119 3822 
Q 1003 3822 797 3725 
L 750 3822 
z
" transform="scale(0.015625)"/>
       </defs>
       <use xlink:href="#TimesNewRomanPSMT-31"/>
       <use xlink:href="#TimesNewRomanPSMT-30" transform="translate(50 0)"/>
      </g>
     </g>
    </g>
    <g id="xtick_3">
     <g id="line2d_3">
      <g>
       <use xlink:href="#m0ba2b87aca" x="146.887083" y="173.92" style="stroke: #000000; stroke-width: 0.8"/>
      </g>
     </g>
     <g id="text_3">
      <!-- 20 -->
      <g transform="translate(141.387083 188.558125) scale(0.11 -0.11)">
       <defs>
        <path id="TimesNewRomanPSMT-32" d="M 2934 816 
L 2638 0 
L 138 0 
L 138 116 
Q 1241 1122 1691 1759 
Q 2141 2397 2141 2925 
Q 2141 3328 1894 3587 
Q 1647 3847 1303 3847 
Q 991 3847 742 3664 
Q 494 3481 375 3128 
L 259 3128 
Q 338 3706 661 4015 
Q 984 4325 1469 4325 
Q 1984 4325 2329 3994 
Q 2675 3663 2675 3213 
Q 2675 2891 2525 2569 
Q 2294 2063 1775 1497 
Q 997 647 803 472 
L 1909 472 
Q 2247 472 2383 497 
Q 2519 522 2628 598 
Q 2738 675 2819 816 
L 2934 816 
z
" transform="scale(0.015625)"/>
       </defs>
       <use xlink:href="#TimesNewRomanPSMT-32"/>
       <use xlink:href="#TimesNewRomanPSMT-30" transform="translate(50 0)"/>
      </g>
     </g>
    </g>
    <g id="xtick_4">
     <g id="line2d_4">
      <g>
       <use xlink:href="#m0ba2b87aca" x="195.817187" y="173.92" style="stroke: #000000; stroke-width: 0.8"/>
      </g>
     </g>
     <g id="text_4">
      <!-- 30 -->
      <g transform="translate(190.317187 188.558125) scale(0.11 -0.11)">
       <defs>
        <path id="TimesNewRomanPSMT-33" d="M 325 3431 
Q 506 3859 782 4092 
Q 1059 4325 1472 4325 
Q 1981 4325 2253 3994 
Q 2459 3747 2459 3466 
Q 2459 3003 1878 2509 
Q 2269 2356 2469 2072 
Q 2669 1788 2669 1403 
Q 2669 853 2319 450 
Q 1863 -75 997 -75 
Q 569 -75 414 31 
Q 259 138 259 259 
Q 259 350 332 419 
Q 406 488 509 488 
Q 588 488 669 463 
Q 722 447 909 348 
Q 1097 250 1169 231 
Q 1284 197 1416 197 
Q 1734 197 1970 444 
Q 2206 691 2206 1028 
Q 2206 1275 2097 1509 
Q 2016 1684 1919 1775 
Q 1784 1900 1550 2001 
Q 1316 2103 1072 2103 
L 972 2103 
L 972 2197 
Q 1219 2228 1467 2375 
Q 1716 2522 1828 2728 
Q 1941 2934 1941 3181 
Q 1941 3503 1739 3701 
Q 1538 3900 1238 3900 
Q 753 3900 428 3381 
L 325 3431 
z
" transform="scale(0.015625)"/>
       </defs>
       <use xlink:href="#TimesNewRomanPSMT-33"/>
       <use xlink:href="#TimesNewRomanPSMT-30" transform="translate(50 0)"/>
      </g>
     </g>
    </g>
    <g id="xtick_5">
     <g id="line2d_5">
      <g>
       <use xlink:href="#m0ba2b87aca" x="244.747292" y="173.92" style="stroke: #000000; stroke-width: 0.8"/>
      </g>
     </g>
     <g id="text_5">
      <!-- 40 -->
      <g transform="translate(239.247292 188.558125) scale(0.11 -0.11)">
       <defs>
        <path id="TimesNewRomanPSMT-34" d="M 2978 1563 
L 2978 1119 
L 2409 1119 
L 2409 0 
L 1894 0 
L 1894 1119 
L 100 1119 
L 100 1519 
L 2066 4325 
L 2409 4325 
L 2409 1563 
L 2978 1563 
z
M 1894 1563 
L 1894 3666 
L 406 1563 
L 1894 1563 
z
" transform="scale(0.015625)"/>
       </defs>
       <use xlink:href="#TimesNewRomanPSMT-34"/>
       <use xlink:href="#TimesNewRomanPSMT-30" transform="translate(50 0)"/>
      </g>
     </g>
    </g>
    <g id="xtick_6">
     <g id="line2d_6">
      <g>
       <use xlink:href="#m0ba2b87aca" x="293.677396" y="173.92" style="stroke: #000000; stroke-width: 0.8"/>
      </g>
     </g>
     <g id="text_6">
      <!-- 50 -->
      <g transform="translate(288.177396 188.558125) scale(0.11 -0.11)">
       <defs>
        <path id="TimesNewRomanPSMT-35" d="M 2778 4238 
L 2534 3706 
L 1259 3706 
L 981 3138 
Q 1809 3016 2294 2522 
Q 2709 2097 2709 1522 
Q 2709 1188 2573 903 
Q 2438 619 2231 419 
Q 2025 219 1772 97 
Q 1413 -75 1034 -75 
Q 653 -75 479 54 
Q 306 184 306 341 
Q 306 428 378 495 
Q 450 563 559 563 
Q 641 563 702 538 
Q 763 513 909 409 
Q 1144 247 1384 247 
Q 1750 247 2026 523 
Q 2303 800 2303 1197 
Q 2303 1581 2056 1914 
Q 1809 2247 1375 2428 
Q 1034 2569 447 2591 
L 1259 4238 
L 2778 4238 
z
" transform="scale(0.015625)"/>
       </defs>
       <use xlink:href="#TimesNewRomanPSMT-35"/>
       <use xlink:href="#TimesNewRomanPSMT-30" transform="translate(50 0)"/>
      </g>
     </g>
    </g>
    <g id="xtick_7">
     <g id="line2d_7">
      <g>
       <use xlink:href="#m0ba2b87aca" x="342.6075" y="173.92" style="stroke: #000000; stroke-width: 0.8"/>
      </g>
     </g>
     <g id="text_7">
      <!-- 60 -->
      <g transform="translate(337.1075 188.558125) scale(0.11 -0.11)">
       <defs>
        <path id="TimesNewRomanPSMT-36" d="M 2869 4325 
L 2869 4209 
Q 2456 4169 2195 4045 
Q 1934 3922 1679 3669 
Q 1425 3416 1258 3105 
Q 1091 2794 978 2366 
Q 1428 2675 1881 2675 
Q 2316 2675 2634 2325 
Q 2953 1975 2953 1425 
Q 2953 894 2631 456 
Q 2244 -75 1606 -75 
Q 1172 -75 869 213 
Q 275 772 275 1663 
Q 275 2231 503 2743 
Q 731 3256 1154 3653 
Q 1578 4050 1965 4187 
Q 2353 4325 2688 4325 
L 2869 4325 
z
M 925 2138 
Q 869 1716 869 1456 
Q 869 1156 980 804 
Q 1091 453 1309 247 
Q 1469 100 1697 100 
Q 1969 100 2183 356 
Q 2397 613 2397 1088 
Q 2397 1622 2184 2012 
Q 1972 2403 1581 2403 
Q 1463 2403 1327 2353 
Q 1191 2303 925 2138 
z
" transform="scale(0.015625)"/>
       </defs>
       <use xlink:href="#TimesNewRomanPSMT-36"/>
       <use xlink:href="#TimesNewRomanPSMT-30" transform="translate(50 0)"/>
      </g>
     </g>
    </g>
    <g id="text_8">
     <!-- Time (s) -->
     <g transform="translate(177.224609 202.549219) scale(0.11 -0.11)">
      <defs>
       <path id="TimesNewRomanPSMT-54" d="M 3703 4238 
L 3750 3244 
L 3631 3244 
Q 3597 3506 3538 3619 
Q 3441 3800 3280 3886 
Q 3119 3972 2856 3972 
L 2259 3972 
L 2259 734 
Q 2259 344 2344 247 
Q 2463 116 2709 116 
L 2856 116 
L 2856 0 
L 1059 0 
L 1059 116 
L 1209 116 
Q 1478 116 1591 278 
Q 1659 378 1659 734 
L 1659 3972 
L 1150 3972 
Q 853 3972 728 3928 
Q 566 3869 450 3700 
Q 334 3531 313 3244 
L 194 3244 
L 244 4238 
L 3703 4238 
z
" transform="scale(0.015625)"/>
       <path id="TimesNewRomanPSMT-69" d="M 928 4444 
Q 1059 4444 1151 4351 
Q 1244 4259 1244 4128 
Q 1244 3997 1151 3903 
Q 1059 3809 928 3809 
Q 797 3809 703 3903 
Q 609 3997 609 4128 
Q 609 4259 701 4351 
Q 794 4444 928 4444 
z
M 1188 2947 
L 1188 647 
Q 1188 378 1227 289 
Q 1266 200 1342 156 
Q 1419 113 1622 113 
L 1622 0 
L 231 0 
L 231 113 
Q 441 113 512 153 
Q 584 194 626 287 
Q 669 381 669 647 
L 669 1750 
Q 669 2216 641 2353 
Q 619 2453 572 2492 
Q 525 2531 444 2531 
Q 356 2531 231 2484 
L 188 2597 
L 1050 2947 
L 1188 2947 
z
" transform="scale(0.015625)"/>
       <path id="TimesNewRomanPSMT-6d" d="M 1050 2338 
Q 1363 2650 1419 2697 
Q 1559 2816 1721 2881 
Q 1884 2947 2044 2947 
Q 2313 2947 2506 2790 
Q 2700 2634 2766 2338 
Q 3088 2713 3309 2830 
Q 3531 2947 3766 2947 
Q 3994 2947 4170 2830 
Q 4347 2713 4450 2447 
Q 4519 2266 4519 1878 
L 4519 647 
Q 4519 378 4559 278 
Q 4591 209 4675 161 
Q 4759 113 4950 113 
L 4950 0 
L 3538 0 
L 3538 113 
L 3597 113 
Q 3781 113 3884 184 
Q 3956 234 3988 344 
Q 4000 397 4000 647 
L 4000 1878 
Q 4000 2228 3916 2372 
Q 3794 2572 3525 2572 
Q 3359 2572 3192 2489 
Q 3025 2406 2788 2181 
L 2781 2147 
L 2788 2013 
L 2788 647 
Q 2788 353 2820 281 
Q 2853 209 2943 161 
Q 3034 113 3253 113 
L 3253 0 
L 1806 0 
L 1806 113 
Q 2044 113 2133 169 
Q 2222 225 2256 338 
Q 2272 391 2272 647 
L 2272 1878 
Q 2272 2228 2169 2381 
Q 2031 2581 1784 2581 
Q 1616 2581 1450 2491 
Q 1191 2353 1050 2181 
L 1050 647 
Q 1050 366 1089 281 
Q 1128 197 1204 155 
Q 1281 113 1516 113 
L 1516 0 
L 100 0 
L 100 113 
Q 297 113 375 155 
Q 453 197 493 289 
Q 534 381 534 647 
L 534 1741 
Q 534 2213 506 2350 
Q 484 2453 437 2492 
Q 391 2531 309 2531 
Q 222 2531 100 2484 
L 53 2597 
L 916 2947 
L 1050 2947 
L 1050 2338 
z
" transform="scale(0.015625)"/>
       <path id="TimesNewRomanPSMT-65" d="M 681 1784 
Q 678 1147 991 784 
Q 1303 422 1725 422 
Q 2006 422 2214 576 
Q 2422 731 2563 1106 
L 2659 1044 
Q 2594 616 2278 264 
Q 1963 -88 1488 -88 
Q 972 -88 605 314 
Q 238 716 238 1394 
Q 238 2128 614 2539 
Q 991 2950 1559 2950 
Q 2041 2950 2350 2633 
Q 2659 2316 2659 1784 
L 681 1784 
z
M 681 1966 
L 2006 1966 
Q 1991 2241 1941 2353 
Q 1863 2528 1708 2628 
Q 1553 2728 1384 2728 
Q 1125 2728 920 2526 
Q 716 2325 681 1966 
z
" transform="scale(0.015625)"/>
       <path id="TimesNewRomanPSMT-20" transform="scale(0.015625)"/>
       <path id="TimesNewRomanPSMT-28" d="M 1988 -1253 
L 1988 -1369 
Q 1516 -1131 1200 -813 
Q 750 -359 506 256 
Q 263 872 263 1534 
Q 263 2503 741 3301 
Q 1219 4100 1988 4444 
L 1988 4313 
Q 1603 4100 1356 3731 
Q 1109 3363 987 2797 
Q 866 2231 866 1616 
Q 866 947 969 400 
Q 1050 -31 1165 -292 
Q 1281 -553 1476 -793 
Q 1672 -1034 1988 -1253 
z
" transform="scale(0.015625)"/>
       <path id="TimesNewRomanPSMT-73" d="M 2050 2947 
L 2050 1972 
L 1947 1972 
Q 1828 2431 1642 2597 
Q 1456 2763 1169 2763 
Q 950 2763 815 2647 
Q 681 2531 681 2391 
Q 681 2216 781 2091 
Q 878 1963 1175 1819 
L 1631 1597 
Q 2266 1288 2266 781 
Q 2266 391 1970 151 
Q 1675 -88 1309 -88 
Q 1047 -88 709 6 
Q 606 38 541 38 
Q 469 38 428 -44 
L 325 -44 
L 325 978 
L 428 978 
Q 516 541 762 319 
Q 1009 97 1316 97 
Q 1531 97 1667 223 
Q 1803 350 1803 528 
Q 1803 744 1651 891 
Q 1500 1038 1047 1263 
Q 594 1488 453 1669 
Q 313 1847 313 2119 
Q 313 2472 555 2709 
Q 797 2947 1181 2947 
Q 1350 2947 1591 2875 
Q 1750 2828 1803 2828 
Q 1853 2828 1881 2850 
Q 1909 2872 1947 2947 
L 2050 2947 
z
" transform="scale(0.015625)"/>
       <path id="TimesNewRomanPSMT-29" d="M 144 4313 
L 144 4444 
Q 619 4209 934 3891 
Q 1381 3434 1625 2820 
Q 1869 2206 1869 1541 
Q 1869 572 1392 -226 
Q 916 -1025 144 -1369 
L 144 -1253 
Q 528 -1038 776 -670 
Q 1025 -303 1145 264 
Q 1266 831 1266 1447 
Q 1266 2113 1163 2663 
Q 1084 3094 967 3353 
Q 850 3613 656 3853 
Q 463 4094 144 4313 
z
" transform="scale(0.015625)"/>
      </defs>
      <use xlink:href="#TimesNewRomanPSMT-54"/>
      <use xlink:href="#TimesNewRomanPSMT-69" transform="translate(57.583984 0)"/>
      <use xlink:href="#TimesNewRomanPSMT-6d" transform="translate(85.367188 0)"/>
      <use xlink:href="#TimesNewRomanPSMT-65" transform="translate(163.150391 0)"/>
      <use xlink:href="#TimesNewRomanPSMT-20" transform="translate(207.535156 0)"/>
      <use xlink:href="#TimesNewRomanPSMT-28" transform="translate(232.535156 0)"/>
      <use xlink:href="#TimesNewRomanPSMT-73" transform="translate(265.835938 0)"/>
      <use xlink:href="#TimesNewRomanPSMT-29" transform="translate(304.751953 0)"/>
     </g>
    </g>
   </g>
   <g id="matplotlib.axis_2">
    <g id="ytick_1">
     <g id="line2d_8">
      <defs>
       <path id="mb16bf57125" d="M 0 0 
L -3.5 0 
" style="stroke: #000000; stroke-width: 0.8"/>
      </defs>
      <g>
       <use xlink:href="#mb16bf57125" x="49.026875" y="173.92" style="stroke: #000000; stroke-width: 0.8"/>
      </g>
     </g>
     <g id="text_9">
      <!-- 100 -->
      <g transform="translate(25.526875 177.739062) scale(0.11 -0.11)">
       <use xlink:href="#TimesNewRomanPSMT-31"/>
       <use xlink:href="#TimesNewRomanPSMT-30" transform="translate(50 0)"/>
       <use xlink:href="#TimesNewRomanPSMT-30" transform="translate(100 0)"/>
      </g>
     </g>
    </g>
    <g id="ytick_2">
     <g id="line2d_9">
      <g>
       <use xlink:href="#mb16bf57125" x="49.026875" y="148.990769" style="stroke: #000000; stroke-width: 0.8"/>
      </g>
     </g>
     <g id="text_10">
      <!-- 200 -->
      <g transform="translate(25.526875 152.809832) scale(0.11 -0.11)">
       <use xlink:href="#TimesNewRomanPSMT-32"/>
       <use xlink:href="#TimesNewRomanPSMT-30" transform="translate(50 0)"/>
       <use xlink:href="#TimesNewRomanPSMT-30" transform="translate(100 0)"/>
      </g>
     </g>
    </g>
    <g id="ytick_3">
     <g id="line2d_10">
      <g>
       <use xlink:href="#mb16bf57125" x="49.026875" y="124.061538" style="stroke: #000000; stroke-width: 0.8"/>
      </g>
     </g>
     <g id="text_11">
      <!-- 300 -->
      <g transform="translate(25.526875 127.880601) scale(0.11 -0.11)">
       <use xlink:href="#TimesNewRomanPSMT-33"/>
       <use xlink:href="#TimesNewRomanPSMT-30" transform="translate(50 0)"/>
       <use xlink:href="#TimesNewRomanPSMT-30" transform="translate(100 0)"/>
      </g>
     </g>
    </g>
    <g id="ytick_4">
     <g id="line2d_11">
      <g>
       <use xlink:href="#mb16bf57125" x="49.026875" y="99.132308" style="stroke: #000000; stroke-width: 0.8"/>
      </g>
     </g>
     <g id="text_12">
      <!-- 400 -->
      <g transform="translate(25.526875 102.95137) scale(0.11 -0.11)">
       <use xlink:href="#TimesNewRomanPSMT-34"/>
       <use xlink:href="#TimesNewRomanPSMT-30" transform="translate(50 0)"/>
       <use xlink:href="#TimesNewRomanPSMT-30" transform="translate(100 0)"/>
      </g>
     </g>
    </g>
    <g id="ytick_5">
     <g id="line2d_12">
      <g>
       <use xlink:href="#mb16bf57125" x="49.026875" y="74.203077" style="stroke: #000000; stroke-width: 0.8"/>
      </g>
     </g>
     <g id="text_13">
      <!-- 500 -->
      <g transform="translate(25.526875 78.022139) scale(0.11 -0.11)">
       <use xlink:href="#TimesNewRomanPSMT-35"/>
       <use xlink:href="#TimesNewRomanPSMT-30" transform="translate(50 0)"/>
       <use xlink:href="#TimesNewRomanPSMT-30" transform="translate(100 0)"/>
      </g>
     </g>
    </g>
    <g id="ytick_6">
     <g id="line2d_13">
      <g>
       <use xlink:href="#mb16bf57125" x="49.026875" y="49.273846" style="stroke: #000000; stroke-width: 0.8"/>
      </g>
     </g>
     <g id="text_14">
      <!-- 600 -->
      <g transform="translate(25.526875 53.092909) scale(0.11 -0.11)">
       <use xlink:href="#TimesNewRomanPSMT-36"/>
       <use xlink:href="#TimesNewRomanPSMT-30" transform="translate(50 0)"/>
       <use xlink:href="#TimesNewRomanPSMT-30" transform="translate(100 0)"/>
      </g>
     </g>
    </g>
    <g id="ytick_7">
     <g id="line2d_14">
      <g>
       <use xlink:href="#mb16bf57125" x="49.026875" y="24.344615" style="stroke: #000000; stroke-width: 0.8"/>
      </g>
     </g>
     <g id="text_15">
      <!-- 700 -->
      <g transform="translate(25.526875 28.163678) scale(0.11 -0.11)">
       <defs>
        <path id="TimesNewRomanPSMT-37" d="M 644 4238 
L 2916 4238 
L 2916 4119 
L 1503 -88 
L 1153 -88 
L 2419 3728 
L 1253 3728 
Q 900 3728 750 3644 
Q 488 3500 328 3200 
L 238 3234 
L 644 4238 
z
" transform="scale(0.015625)"/>
       </defs>
       <use xlink:href="#TimesNewRomanPSMT-37"/>
       <use xlink:href="#TimesNewRomanPSMT-30" transform="translate(50 0)"/>
       <use xlink:href="#TimesNewRomanPSMT-30" transform="translate(100 0)"/>
      </g>
     </g>
    </g>
    <g id="text_16">
     <!-- Frequency (Hz) -->
     <g transform="translate(19.153281 127.565469) rotate(-90) scale(0.11 -0.11)">
      <defs>
       <path id="TimesNewRomanPSMT-46" d="M 1309 4006 
L 1309 2341 
L 2081 2341 
Q 2347 2341 2470 2458 
Q 2594 2575 2634 2922 
L 2750 2922 
L 2750 1488 
L 2634 1488 
Q 2631 1734 2570 1850 
Q 2509 1966 2401 2023 
Q 2294 2081 2081 2081 
L 1309 2081 
L 1309 750 
Q 1309 428 1350 325 
Q 1381 247 1481 191 
Q 1619 116 1769 116 
L 1922 116 
L 1922 0 
L 103 0 
L 103 116 
L 253 116 
Q 516 116 634 269 
Q 709 369 709 750 
L 709 3488 
Q 709 3809 669 3913 
Q 638 3991 541 4047 
Q 406 4122 253 4122 
L 103 4122 
L 103 4238 
L 3256 4238 
L 3297 3306 
L 3188 3306 
Q 3106 3603 2998 3742 
Q 2891 3881 2733 3943 
Q 2575 4006 2244 4006 
L 1309 4006 
z
" transform="scale(0.015625)"/>
       <path id="TimesNewRomanPSMT-72" d="M 1038 2947 
L 1038 2303 
Q 1397 2947 1775 2947 
Q 1947 2947 2059 2842 
Q 2172 2738 2172 2600 
Q 2172 2478 2090 2393 
Q 2009 2309 1897 2309 
Q 1788 2309 1652 2417 
Q 1516 2525 1450 2525 
Q 1394 2525 1328 2463 
Q 1188 2334 1038 2041 
L 1038 669 
Q 1038 431 1097 309 
Q 1138 225 1241 169 
Q 1344 113 1538 113 
L 1538 0 
L 72 0 
L 72 113 
Q 291 113 397 181 
Q 475 231 506 341 
Q 522 394 522 644 
L 522 1753 
Q 522 2253 501 2348 
Q 481 2444 426 2487 
Q 372 2531 291 2531 
Q 194 2531 72 2484 
L 41 2597 
L 906 2947 
L 1038 2947 
z
" transform="scale(0.015625)"/>
       <path id="TimesNewRomanPSMT-71" d="M 2734 2947 
L 2734 -734 
Q 2734 -1009 2771 -1087 
Q 2809 -1166 2889 -1209 
Q 2969 -1253 3200 -1253 
L 3200 -1369 
L 1756 -1369 
L 1756 -1253 
L 1816 -1253 
Q 1991 -1253 2081 -1203 
Q 2144 -1169 2181 -1080 
Q 2219 -991 2219 -734 
L 2219 497 
Q 1934 159 1721 35 
Q 1509 -88 1281 -88 
Q 866 -88 539 290 
Q 213 669 213 1303 
Q 213 2031 644 2489 
Q 1075 2947 1684 2947 
Q 1863 2947 2013 2897 
Q 2163 2847 2281 2747 
Q 2463 2834 2628 2947 
L 2734 2947 
z
M 2219 694 
L 2219 2038 
Q 2219 2272 2158 2406 
Q 2097 2541 1940 2634 
Q 1784 2728 1588 2728 
Q 1238 2728 988 2431 
Q 738 2134 738 1531 
Q 738 953 992 653 
Q 1247 353 1606 353 
Q 1791 353 1934 433 
Q 2078 513 2219 694 
z
" transform="scale(0.015625)"/>
       <path id="TimesNewRomanPSMT-75" d="M 2709 2863 
L 2709 1128 
Q 2709 631 2732 520 
Q 2756 409 2807 365 
Q 2859 322 2928 322 
Q 3025 322 3147 375 
L 3191 266 
L 2334 -88 
L 2194 -88 
L 2194 519 
Q 1825 119 1631 15 
Q 1438 -88 1222 -88 
Q 981 -88 804 51 
Q 628 191 559 409 
Q 491 628 491 1028 
L 491 2306 
Q 491 2509 447 2587 
Q 403 2666 317 2708 
Q 231 2750 6 2747 
L 6 2863 
L 1009 2863 
L 1009 947 
Q 1009 547 1148 422 
Q 1288 297 1484 297 
Q 1619 297 1789 381 
Q 1959 466 2194 703 
L 2194 2325 
Q 2194 2569 2105 2655 
Q 2016 2741 1734 2747 
L 1734 2863 
L 2709 2863 
z
" transform="scale(0.015625)"/>
       <path id="TimesNewRomanPSMT-6e" d="M 1034 2341 
Q 1538 2947 1994 2947 
Q 2228 2947 2397 2830 
Q 2566 2713 2666 2444 
Q 2734 2256 2734 1869 
L 2734 647 
Q 2734 375 2778 278 
Q 2813 200 2889 156 
Q 2966 113 3172 113 
L 3172 0 
L 1756 0 
L 1756 113 
L 1816 113 
Q 2016 113 2095 173 
Q 2175 234 2206 353 
Q 2219 400 2219 647 
L 2219 1819 
Q 2219 2209 2117 2386 
Q 2016 2563 1775 2563 
Q 1403 2563 1034 2156 
L 1034 647 
Q 1034 356 1069 288 
Q 1113 197 1189 155 
Q 1266 113 1500 113 
L 1500 0 
L 84 0 
L 84 113 
L 147 113 
Q 366 113 442 223 
Q 519 334 519 647 
L 519 1709 
Q 519 2225 495 2337 
Q 472 2450 423 2490 
Q 375 2531 294 2531 
Q 206 2531 84 2484 
L 38 2597 
L 900 2947 
L 1034 2947 
L 1034 2341 
z
" transform="scale(0.015625)"/>
       <path id="TimesNewRomanPSMT-63" d="M 2631 1088 
Q 2516 522 2178 217 
Q 1841 -88 1431 -88 
Q 944 -88 581 321 
Q 219 731 219 1428 
Q 219 2103 620 2525 
Q 1022 2947 1584 2947 
Q 2006 2947 2278 2723 
Q 2550 2500 2550 2259 
Q 2550 2141 2473 2067 
Q 2397 1994 2259 1994 
Q 2075 1994 1981 2113 
Q 1928 2178 1911 2362 
Q 1894 2547 1784 2644 
Q 1675 2738 1481 2738 
Q 1169 2738 978 2506 
Q 725 2200 725 1697 
Q 725 1184 976 792 
Q 1228 400 1656 400 
Q 1963 400 2206 609 
Q 2378 753 2541 1131 
L 2631 1088 
z
" transform="scale(0.015625)"/>
       <path id="TimesNewRomanPSMT-79" d="M 38 2863 
L 1372 2863 
L 1372 2747 
L 1306 2747 
Q 1166 2747 1095 2686 
Q 1025 2625 1025 2534 
Q 1025 2413 1128 2197 
L 1825 753 
L 2466 2334 
Q 2519 2463 2519 2588 
Q 2519 2644 2497 2672 
Q 2472 2706 2419 2726 
Q 2366 2747 2231 2747 
L 2231 2863 
L 3163 2863 
L 3163 2747 
Q 3047 2734 2984 2696 
Q 2922 2659 2847 2556 
Q 2819 2513 2741 2316 
L 1575 -541 
Q 1406 -956 1132 -1168 
Q 859 -1381 606 -1381 
Q 422 -1381 303 -1275 
Q 184 -1169 184 -1031 
Q 184 -900 270 -820 
Q 356 -741 506 -741 
Q 609 -741 788 -809 
Q 913 -856 944 -856 
Q 1038 -856 1148 -759 
Q 1259 -663 1372 -384 
L 1575 113 
L 547 2272 
Q 500 2369 397 2513 
Q 319 2622 269 2659 
Q 197 2709 38 2747 
L 38 2863 
z
" transform="scale(0.015625)"/>
       <path id="TimesNewRomanPSMT-48" d="M 1316 2272 
L 3284 2272 
L 3284 3484 
Q 3284 3809 3244 3913 
Q 3213 3991 3113 4047 
Q 2978 4122 2828 4122 
L 2678 4122 
L 2678 4238 
L 4491 4238 
L 4491 4122 
L 4341 4122 
Q 4191 4122 4056 4050 
Q 3956 4000 3920 3898 
Q 3884 3797 3884 3484 
L 3884 750 
Q 3884 428 3925 325 
Q 3956 247 4053 191 
Q 4191 116 4341 116 
L 4491 116 
L 4491 0 
L 2678 0 
L 2678 116 
L 2828 116 
Q 3088 116 3206 269 
Q 3284 369 3284 750 
L 3284 2041 
L 1316 2041 
L 1316 750 
Q 1316 428 1356 325 
Q 1388 247 1488 191 
Q 1622 116 1772 116 
L 1925 116 
L 1925 0 
L 109 0 
L 109 116 
L 259 116 
Q 522 116 641 269 
Q 716 369 716 750 
L 716 3484 
Q 716 3809 675 3913 
Q 644 3991 547 4047 
Q 409 4122 259 4122 
L 109 4122 
L 109 4238 
L 1925 4238 
L 1925 4122 
L 1772 4122 
Q 1622 4122 1488 4050 
Q 1391 4000 1353 3898 
Q 1316 3797 1316 3484 
L 1316 2272 
z
" transform="scale(0.015625)"/>
       <path id="TimesNewRomanPSMT-7a" d="M 2688 878 
L 2653 0 
L 128 0 
L 128 113 
L 2028 2644 
L 1091 2644 
Q 788 2644 694 2605 
Q 600 2566 541 2456 
Q 456 2300 444 2069 
L 319 2069 
L 338 2863 
L 2738 2863 
L 2738 2747 
L 819 209 
L 1863 209 
Q 2191 209 2308 264 
Q 2425 319 2497 456 
Q 2547 556 2581 878 
L 2688 878 
z
" transform="scale(0.015625)"/>
      </defs>
      <use xlink:href="#TimesNewRomanPSMT-46"/>
      <use xlink:href="#TimesNewRomanPSMT-72" transform="translate(55.615234 0)"/>
      <use xlink:href="#TimesNewRomanPSMT-65" transform="translate(88.916016 0)"/>
      <use xlink:href="#TimesNewRomanPSMT-71" transform="translate(133.300781 0)"/>
      <use xlink:href="#TimesNewRomanPSMT-75" transform="translate(183.300781 0)"/>
      <use xlink:href="#TimesNewRomanPSMT-65" transform="translate(233.300781 0)"/>
      <use xlink:href="#TimesNewRomanPSMT-6e" transform="translate(277.685547 0)"/>
      <use xlink:href="#TimesNewRomanPSMT-63" transform="translate(327.685547 0)"/>
      <use xlink:href="#TimesNewRomanPSMT-79" transform="translate(372.070312 0)"/>
      <use xlink:href="#TimesNewRomanPSMT-20" transform="translate(422.070312 0)"/>
      <use xlink:href="#TimesNewRomanPSMT-28" transform="translate(447.070312 0)"/>
      <use xlink:href="#TimesNewRomanPSMT-48" transform="translate(480.371094 0)"/>
      <use xlink:href="#TimesNewRomanPSMT-7a" transform="translate(552.587891 0)"/>
      <use xlink:href="#TimesNewRomanPSMT-29" transform="translate(596.972656 0)"/>
     </g>
    </g>
   </g>
   <g id="line2d_15">
    <path d="M 49.026875 154.774351 
L 51.47338 154.774351 
L 51.47338 153.478031 
L 53.919885 153.478031 
L 53.919885 152.156782 
L 56.366391 152.156782 
L 56.366391 150.785674 
L 58.812896 150.785674 
L 58.812896 149.364708 
L 61.259401 149.364708 
L 61.259401 147.918812 
L 63.705906 147.918812 
L 63.705906 146.423058 
L 66.152411 146.423058 
L 66.152411 144.902375 
L 68.598917 144.902375 
L 68.598917 143.306905 
L 71.045422 143.306905 
L 71.045422 141.686505 
L 73.491927 141.686505 
L 73.491927 140.016246 
L 75.938432 140.016246 
L 75.938432 138.296129 
L 78.384938 138.296129 
L 78.384938 136.526154 
L 80.831443 136.526154 
L 80.831443 134.681391 
L 83.277948 134.681391 
L 83.277948 132.811698 
L 85.724453 132.811698 
L 85.724453 130.867218 
L 88.170958 130.867218 
L 88.170958 128.87288 
L 90.617464 128.87288 
L 90.617464 126.828683 
L 93.063969 126.828683 
L 93.063969 124.734628 
L 95.510474 124.734628 
L 95.510474 122.540855 
L 97.956979 122.540855 
L 97.956979 120.322154 
L 100.403484 120.322154 
L 100.403484 118.003735 
L 102.84999 118.003735 
L 102.84999 115.635458 
L 105.296495 115.635458 
L 105.296495 113.217323 
L 107.743 113.217323 
L 107.743 110.699471 
M 107.743 154.774351 
L 110.189505 154.774351 
L 110.189505 153.478031 
L 112.63601 153.478031 
L 112.63601 152.156782 
L 115.082516 152.156782 
L 115.082516 150.785674 
L 117.529021 150.785674 
L 117.529021 149.364708 
L 119.975526 149.364708 
L 119.975526 147.918812 
L 122.422031 147.918812 
L 122.422031 146.423058 
L 124.868536 146.423058 
L 124.868536 144.902375 
L 127.315042 144.902375 
L 127.315042 143.306905 
L 129.761547 143.306905 
L 129.761547 141.686505 
L 132.208052 141.686505 
L 132.208052 140.016246 
L 134.654557 140.016246 
L 134.654557 138.296129 
L 137.101063 138.296129 
L 137.101063 136.526154 
L 139.547568 136.526154 
L 139.547568 134.681391 
L 141.994073 134.681391 
L 141.994073 132.811698 
L 144.440578 132.811698 
L 144.440578 130.867218 
L 146.887083 130.867218 
L 146.887083 128.87288 
L 149.333589 128.87288 
L 149.333589 126.828683 
L 151.780094 126.828683 
L 151.780094 124.734628 
L 154.226599 124.734628 
L 154.226599 122.540855 
L 156.673104 122.540855 
L 156.673104 120.322154 
L 159.119609 120.322154 
L 159.119609 118.003735 
L 161.566115 118.003735 
L 161.566115 115.635458 
L 164.01262 115.635458 
L 164.01262 113.217323 
L 166.459125 113.217323 
L 166.459125 110.699471 
M 166.459125 154.774351 
L 168.90563 154.774351 
L 168.90563 153.478031 
L 171.352135 153.478031 
L 171.352135 152.156782 
L 173.798641 152.156782 
L 173.798641 150.785674 
L 176.245146 150.785674 
L 176.245146 149.364708 
L 178.691651 149.364708 
L 178.691651 147.918812 
L 181.138156 147.918812 
L 181.138156 146.423058 
L 183.584661 146.423058 
L 183.584661 144.902375 
L 186.031167 144.902375 
L 186.031167 143.306905 
L 188.477672 143.306905 
L 188.477672 141.686505 
L 190.924177 141.686505 
L 190.924177 140.016246 
L 193.370682 140.016246 
L 193.370682 138.296129 
L 195.817187 138.296129 
L 195.817187 136.526154 
L 198.263693 136.526154 
L 198.263693 134.681391 
L 200.710198 134.681391 
L 200.710198 132.811698 
L 203.156703 132.811698 
L 203.156703 130.867218 
L 205.603208 130.867218 
L 205.603208 128.87288 
L 208.049714 128.87288 
L 208.049714 126.828683 
L 210.496219 126.828683 
L 210.496219 124.734628 
L 212.942724 124.734628 
L 212.942724 122.540855 
L 215.389229 122.540855 
L 215.389229 120.322154 
L 217.835734 120.322154 
L 217.835734 118.003735 
L 220.28224 118.003735 
L 220.28224 115.635458 
L 222.728745 115.635458 
L 222.728745 113.217323 
L 225.17525 113.217323 
L 225.17525 110.699471 
M 225.17525 154.774351 
L 227.621755 154.774351 
L 227.621755 153.478031 
L 230.06826 153.478031 
L 230.06826 152.156782 
L 232.514766 152.156782 
L 232.514766 150.785674 
L 234.961271 150.785674 
L 234.961271 149.364708 
L 237.407776 149.364708 
L 237.407776 147.918812 
L 239.854281 147.918812 
L 239.854281 146.423058 
L 242.300786 146.423058 
L 242.300786 144.902375 
L 244.747292 144.902375 
L 244.747292 143.306905 
L 247.193797 143.306905 
L 247.193797 141.686505 
L 249.640302 141.686505 
L 249.640302 140.016246 
L 252.086807 140.016246 
L 252.086807 138.296129 
L 254.533312 138.296129 
L 254.533312 136.526154 
L 256.979818 136.526154 
L 256.979818 134.681391 
L 259.426323 134.681391 
L 259.426323 132.811698 
L 261.872828 132.811698 
L 261.872828 130.867218 
L 264.319333 130.867218 
L 264.319333 128.87288 
L 266.765839 128.87288 
L 266.765839 126.828683 
L 269.212344 126.828683 
L 269.212344 124.734628 
L 271.658849 124.734628 
L 271.658849 122.540855 
L 274.105354 122.540855 
L 274.105354 120.322154 
L 276.551859 120.322154 
L 276.551859 118.003735 
L 278.998365 118.003735 
L 278.998365 115.635458 
L 281.44487 115.635458 
L 281.44487 113.217323 
L 283.891375 113.217323 
L 283.891375 110.699471 
M 283.891375 154.774351 
L 286.33788 154.774351 
L 286.33788 153.478031 
L 288.784385 153.478031 
L 288.784385 152.156782 
L 291.230891 152.156782 
L 291.230891 150.785674 
L 293.677396 150.785674 
L 293.677396 149.364708 
L 296.123901 149.364708 
L 296.123901 147.918812 
L 298.570406 147.918812 
L 298.570406 146.423058 
L 301.016911 146.423058 
L 301.016911 144.902375 
L 303.463417 144.902375 
L 303.463417 143.306905 
L 305.909922 143.306905 
L 305.909922 141.686505 
L 308.356427 141.686505 
L 308.356427 140.016246 
L 310.802932 140.016246 
L 310.802932 138.296129 
L 313.249437 138.296129 
L 313.249437 136.526154 
L 315.695943 136.526154 
L 315.695943 134.681391 
L 318.142448 134.681391 
L 318.142448 132.811698 
L 320.588953 132.811698 
L 320.588953 130.867218 
L 323.035458 130.867218 
L 323.035458 128.87288 
L 325.481964 128.87288 
L 325.481964 126.828683 
L 327.928469 126.828683 
L 327.928469 124.734628 
L 330.374974 124.734628 
L 330.374974 122.540855 
L 332.821479 122.540855 
L 332.821479 120.322154 
L 335.267984 120.322154 
L 335.267984 118.003735 
L 337.71449 118.003735 
L 337.71449 115.635458 
L 340.160995 115.635458 
L 340.160995 113.217323 
L 342.6075 113.217323 
L 342.6075 110.699471 
L 342.6075 110.699471 
" clip-path="url(#p4599e21fd6)" style="fill: none; stroke: #ff0000; stroke-width: 1.1; stroke-linecap: square"/>
   </g>
   <g id="line2d_16">
    <path d="M 49.026875 110.699471 
L 51.47338 110.699471 
L 51.47338 108.106831 
L 53.919885 108.106831 
L 53.919885 105.464332 
L 56.366391 105.464332 
L 56.366391 102.722117 
L 58.812896 102.722117 
L 58.812896 99.905114 
L 61.259401 99.905114 
L 61.259401 97.013323 
L 63.705906 97.013323 
L 63.705906 94.021815 
L 66.152411 94.021815 
L 66.152411 90.95552 
L 68.598917 90.95552 
L 68.598917 87.789508 
L 71.045422 87.789508 
L 71.045422 84.523778 
L 73.491927 84.523778 
L 73.491927 81.183262 
L 75.938432 81.183262 
L 75.938432 77.743028 
L 78.384938 77.743028 
L 78.384938 74.178148 
L 80.831443 74.178148 
L 80.831443 70.53848 
L 83.277948 70.53848 
L 83.277948 66.774166 
L 85.724453 66.774166 
L 85.724453 62.910135 
L 88.170958 62.910135 
L 88.170958 58.921458 
L 90.617464 58.921458 
L 90.617464 54.808135 
L 93.063969 54.808135 
L 93.063969 50.595095 
L 95.510474 50.595095 
L 95.510474 46.257409 
L 97.956979 46.257409 
L 97.956979 41.795077 
L 100.403484 41.795077 
L 100.403484 37.183169 
L 102.84999 37.183169 
L 102.84999 32.446615 
L 105.296495 32.446615 
L 105.296495 27.560486 
L 107.743 27.560486 
L 107.743 22.549711 
M 107.743 110.699471 
L 110.189505 110.699471 
L 110.189505 108.106831 
L 112.63601 108.106831 
L 112.63601 105.464332 
L 115.082516 105.464332 
L 115.082516 102.722117 
L 117.529021 102.722117 
L 117.529021 99.905114 
L 119.975526 99.905114 
L 119.975526 97.013323 
L 122.422031 97.013323 
L 122.422031 94.021815 
L 124.868536 94.021815 
L 124.868536 90.95552 
L 127.315042 90.95552 
L 127.315042 87.789508 
L 129.761547 87.789508 
L 129.761547 84.523778 
L 132.208052 84.523778 
L 132.208052 81.183262 
L 134.654557 81.183262 
L 134.654557 77.743028 
L 137.101063 77.743028 
L 137.101063 74.178148 
L 139.547568 74.178148 
L 139.547568 70.53848 
L 141.994073 70.53848 
L 141.994073 66.774166 
L 144.440578 66.774166 
L 144.440578 62.910135 
L 146.887083 62.910135 
L 146.887083 58.921458 
L 149.333589 58.921458 
L 149.333589 54.808135 
L 151.780094 54.808135 
L 151.780094 50.595095 
L 154.226599 50.595095 
L 154.226599 46.257409 
L 156.673104 46.257409 
L 156.673104 41.795077 
L 159.119609 41.795077 
L 159.119609 37.183169 
L 161.566115 37.183169 
L 161.566115 32.446615 
L 164.01262 32.446615 
L 164.01262 27.560486 
L 166.459125 27.560486 
L 166.459125 22.549711 
M 166.459125 110.699471 
L 168.90563 110.699471 
L 168.90563 108.106831 
L 171.352135 108.106831 
L 171.352135 105.464332 
L 173.798641 105.464332 
L 173.798641 102.722117 
L 176.245146 102.722117 
L 176.245146 99.905114 
L 178.691651 99.905114 
L 178.691651 97.013323 
L 181.138156 97.013323 
L 181.138156 94.021815 
L 183.584661 94.021815 
L 183.584661 90.95552 
L 186.031167 90.95552 
L 186.031167 87.789508 
L 188.477672 87.789508 
L 188.477672 84.523778 
L 190.924177 84.523778 
L 190.924177 81.183262 
L 193.370682 81.183262 
L 193.370682 77.743028 
L 195.817187 77.743028 
L 195.817187 74.178148 
L 198.263693 74.178148 
L 198.263693 70.53848 
L 200.710198 70.53848 
L 200.710198 66.774166 
L 203.156703 66.774166 
L 203.156703 62.910135 
L 205.603208 62.910135 
L 205.603208 58.921458 
L 208.049714 58.921458 
L 208.049714 54.808135 
L 210.496219 54.808135 
L 210.496219 50.595095 
L 212.942724 50.595095 
L 212.942724 46.257409 
L 215.389229 46.257409 
L 215.389229 41.795077 
L 217.835734 41.795077 
L 217.835734 37.183169 
L 220.28224 37.183169 
L 220.28224 32.446615 
L 222.728745 32.446615 
L 222.728745 27.560486 
L 225.17525 27.560486 
L 225.17525 22.549711 
M 225.17525 110.699471 
L 227.621755 110.699471 
L 227.621755 108.106831 
L 230.06826 108.106831 
L 230.06826 105.464332 
L 232.514766 105.464332 
L 232.514766 102.722117 
L 234.961271 102.722117 
L 234.961271 99.905114 
L 237.407776 99.905114 
L 237.407776 97.013323 
L 239.854281 97.013323 
L 239.854281 94.021815 
L 242.300786 94.021815 
L 242.300786 90.95552 
L 244.747292 90.95552 
L 244.747292 87.789508 
L 247.193797 87.789508 
L 247.193797 84.523778 
L 249.640302 84.523778 
L 249.640302 81.183262 
L 252.086807 81.183262 
L 252.086807 77.743028 
L 254.533312 77.743028 
L 254.533312 74.178148 
L 256.979818 74.178148 
L 256.979818 70.53848 
L 259.426323 70.53848 
L 259.426323 66.774166 
L 261.872828 66.774166 
L 261.872828 62.910135 
L 264.319333 62.910135 
L 264.319333 58.921458 
L 266.765839 58.921458 
L 266.765839 54.808135 
L 269.212344 54.808135 
L 269.212344 50.595095 
L 271.658849 50.595095 
L 271.658849 46.257409 
L 274.105354 46.257409 
L 274.105354 41.795077 
L 276.551859 41.795077 
L 276.551859 37.183169 
L 278.998365 37.183169 
L 278.998365 32.446615 
L 281.44487 32.446615 
L 281.44487 27.560486 
L 283.891375 27.560486 
L 283.891375 22.549711 
M 283.891375 110.699471 
L 286.33788 110.699471 
L 286.33788 108.106831 
L 288.784385 108.106831 
L 288.784385 105.464332 
L 291.230891 105.464332 
L 291.230891 102.722117 
L 293.677396 102.722117 
L 293.677396 99.905114 
L 296.123901 99.905114 
L 296.123901 97.013323 
L 298.570406 97.013323 
L 298.570406 94.021815 
L 301.016911 94.021815 
L 301.016911 90.95552 
L 303.463417 90.95552 
L 303.463417 87.789508 
L 305.909922 87.789508 
L 305.909922 84.523778 
L 308.356427 84.523778 
L 308.356427 81.183262 
L 310.802932 81.183262 
L 310.802932 77.743028 
L 313.249437 77.743028 
L 313.249437 74.178148 
L 315.695943 74.178148 
L 315.695943 70.53848 
L 318.142448 70.53848 
L 318.142448 66.774166 
L 320.588953 66.774166 
L 320.588953 62.910135 
L 323.035458 62.910135 
L 323.035458 58.921458 
L 325.481964 58.921458 
L 325.481964 54.808135 
L 327.928469 54.808135 
L 327.928469 50.595095 
L 330.374974 50.595095 
L 330.374974 46.257409 
L 332.821479 46.257409 
L 332.821479 41.795077 
L 335.267984 41.795077 
L 335.267984 37.183169 
L 337.71449 37.183169 
L 337.71449 32.446615 
L 340.160995 32.446615 
L 340.160995 27.560486 
L 342.6075 27.560486 
L 342.6075 22.549711 
L 342.6075 22.549711 
" clip-path="url(#p4599e21fd6)" style="fill: none; stroke: #0000ff; stroke-width: 1.1; stroke-linecap: square"/>
   </g>
   <g id="patch_3">
    <path d="M 49.026875 173.92 
L 49.026875 11.88 
" style="fill: none; stroke: #000000; stroke-width: 0.8; stroke-linejoin: miter; stroke-linecap: square"/>
   </g>
   <g id="patch_4">
    <path d="M 342.6075 173.92 
L 342.6075 11.88 
" style="fill: none; stroke: #000000; stroke-width: 0.8; stroke-linejoin: miter; stroke-linecap: square"/>
   </g>
   <g id="patch_5">
    <path d="M 49.026875 173.92 
L 342.6075 173.92 
" style="fill: none; stroke: #000000; stroke-width: 0.8; stroke-linejoin: miter; stroke-linecap: square"/>
   </g>
   <g id="patch_6">
    <path d="M 49.026875 11.88 
L 342.6075 11.88 
" style="fill: none; stroke: #000000; stroke-width: 0.8; stroke-linejoin: miter; stroke-linecap: square"/>
   </g>
   <g id="legend_1"/>
  </g>
 </g>
 <defs>
  <clipPath id="p4599e21fd6">
   <rect x="49.026875" y="11.88" width="293.580625" height="162.04"/>
  </clipPath>
 </defs>
</svg>
